<svg width="157" height="33" viewBox="0 0 157 33" fill="none" xmlns="http://www.w3.org/2000/svg">
<path d="M24.8436 8.87109H23.3184V10.3973H24.8436V8.87109Z" fill="white"/>
<path d="M27.2815 8.87109H25.7534V10.3973H27.2815V8.87109Z" fill="white"/>
<path d="M24.8436 11.3059H23.3184V12.8321H24.8436V11.3059Z" fill="white"/>
<path d="M27.2815 11.3059H25.7534V12.8321H27.2815V11.3059Z" fill="white"/>
<path d="M10.9094 17.6743H9.20654V19.379H10.9094V17.6743Z" fill="white"/>
<path d="M13.6295 17.6743H11.9238V19.379H13.6295V17.6743Z" fill="white"/>
<path d="M10.9094 20.3926H9.20654V22.0973H10.9094V20.3926Z" fill="white"/>
<path d="M13.6295 20.3926H11.9238V22.0973H13.6295V20.3926Z" fill="white"/>
<path d="M38.9735 15.707H37.7627V16.9178H38.9735V15.707Z" fill="white"/>
<path d="M40.9051 15.707H39.6924V16.9178H40.9051V15.707Z" fill="white"/>
<path d="M38.9735 17.6375H37.7627V18.8482H38.9735V17.6375Z" fill="white"/>
<path d="M40.9051 17.6375H39.6924V18.8482H40.9051V17.6375Z" fill="white"/>
<path d="M5.54395 17.901L11.4326 12.0105L23.1257 23.7037L20.3642 26.4652L27.6099 23.5932L39.1917 12.0105L44.1972 17.0161L47.3309 15.7741L39.1917 7.63678L35.9362 10.8904L25.0448 0L14.4198 10.6241L11.4326 7.63867L3.41895 15.6513L5.54395 17.901ZM25.0448 4.37278L33.7507 13.0796L25.3121 21.5173L16.6091 12.8114L25.0448 4.37278Z" fill="white"/>
<path d="M15.1206 29.9994L2.38944 16.5326L0 18.9466L14.6464 32.4918L50.4069 16.0122L15.1206 29.9994Z" fill="white"/>
<path d="M65.2733 9.5286C65.3822 9.94032 65.4308 10.3656 65.4178 10.7913C65.4178 14.4038 63.2125 16.203 60.5142 16.203C57.4665 16.203 55.2036 13.9108 55.2036 10.3994C55.2036 6.61215 57.8292 4.81299 60.7022 4.81299C62.2699 4.81299 63.6772 5.34943 64.649 6.1626L63.2418 8.46987C62.6468 7.87487 61.7307 7.52543 60.7607 7.52543C58.9323 7.52543 57.8726 8.77304 57.8726 10.5477C57.8726 12.2155 58.8171 13.4924 60.6011 13.4924C61.8629 13.4924 62.7337 12.854 62.9622 11.7367H60.8618V9.5286H65.2733Z" fill="white"/>
<path d="M69.2774 9.65888V10.3559C69.5129 10.0865 69.8033 9.87071 70.1291 9.72295C70.4549 9.5752 70.8086 9.49893 71.1663 9.49927C71.7906 9.49927 72.4583 9.71743 72.8663 10.1821L72.3875 11.8821C72.0531 11.5922 71.6036 11.4467 71.0964 11.4467C70.3853 11.4467 69.8337 11.7518 69.369 12.3468V16.0584H67.04V9.65888H69.2774Z" fill="white"/>
<path d="M77.5914 12.0351C77.5772 11.5562 77.2873 11.339 76.3872 11.339C75.6911 11.339 75.0527 11.4693 74.2395 11.832L73.9496 10.1197C74.7877 9.70395 75.7133 9.49507 76.6488 9.51057C78.821 9.51057 79.9128 10.2793 79.9128 11.8462V16.0584H77.6934V15.5937C77.0398 15.9564 76.3579 16.2029 75.5891 16.2029C74.3264 16.2029 73.5728 15.521 73.5728 14.314C73.5728 13.2836 74.1234 12.5725 75.5023 12.3552L77.5914 12.0351ZM77.5914 14.3858V13.1958L76.3003 13.4857C75.8356 13.5877 75.7336 13.805 75.7336 14.0666C75.7336 14.502 76.0236 14.6465 76.4448 14.6465C76.8399 14.6345 77.229 14.5473 77.5914 14.3896V14.3858Z" fill="white"/>
<path d="M86.1965 11.7517C85.8666 11.5026 85.4634 11.3697 85.05 11.3739C84.1792 11.3739 83.6276 11.9406 83.6276 12.8689C83.6276 13.6953 84.0489 14.3338 84.9914 14.3338C85.2302 14.3405 85.4674 14.2916 85.684 14.191C85.9007 14.0903 86.091 13.9407 86.24 13.7539L87.4007 14.7257C86.8926 15.5531 86.036 16.2057 84.6722 16.2057C82.5104 16.2057 81.4082 14.5661 81.4082 12.8397C81.4082 10.8082 82.9458 9.51711 84.8035 9.51711C85.6967 9.51422 86.5651 9.81047 87.2704 10.3586L86.1965 11.7517Z" fill="white"/>
<path d="M90.7088 13.4896C90.8976 14.1715 91.4341 14.4341 92.3483 14.4341C92.939 14.4378 93.5249 14.3288 94.0748 14.113L94.4374 15.6798C94.0313 15.9697 93.0736 16.2021 92.0763 16.2021C89.4064 16.2021 88.376 14.5483 88.376 12.9088C88.376 11.1672 89.5367 9.50879 91.8147 9.50879C94.122 9.50879 95.1382 11.2211 95.1382 12.889C95.1384 13.0881 95.1239 13.287 95.0948 13.484L90.7088 13.4896ZM90.6653 12.3723H92.8706C92.8706 11.6328 92.4786 11.239 91.8109 11.239C91.2018 11.2409 90.7664 11.5894 90.6653 12.3723Z" fill="white"/>
<path d="M99.1681 4.9585V16.0585H96.8315V4.9585H99.1681Z" fill="white"/>
<path d="M103.651 5.59692V7.99109H101.257V5.59692H103.651ZM103.622 9.65803V16.0585H101.286V9.65898L103.622 9.65803Z" fill="white"/>
<path d="M107.935 9.65891V10.1094C108.515 9.74674 109.371 9.5144 110.27 9.5144C111.736 9.5144 112.52 10.1236 112.52 12.0096V16.0585H110.166V12.3751C110.166 11.6791 109.847 11.4609 109.31 11.4609C108.846 11.4609 108.265 11.6205 108.004 11.9114V16.0585H105.668V9.65891H107.935Z" fill="white"/>
<path d="M121.281 4.9585V9.06494H124.179V4.9585H126.824V16.0585H124.179V11.6622H121.281V16.0585H118.625V4.9585H121.281Z" fill="white"/>
<path d="M131.931 9.5144C134.121 9.5144 135.311 11.154 135.311 12.8511C135.311 14.5634 134.107 16.203 131.931 16.203C129.755 16.203 128.564 14.5634 128.564 12.8511C128.564 11.1389 129.768 9.5144 131.931 9.5144ZM130.871 12.8662C130.871 13.8522 131.263 14.3462 131.931 14.3462C132.599 14.3462 133.004 13.8522 133.004 12.8511C133.004 11.8651 132.613 11.3712 131.945 11.3712C131.262 11.374 130.871 11.8793 130.871 12.8662Z" fill="white"/>
<path d="M139.229 9.65899V10.1095C139.905 9.71061 140.678 9.50482 141.463 9.51449C142.363 9.51449 142.987 9.77515 143.321 10.4136C144.206 9.71754 145.021 9.51449 145.787 9.51449C147.166 9.51449 147.891 10.1378 147.891 11.9086V16.0585H145.556V12.3185C145.556 11.6215 145.221 11.4619 144.786 11.4619C144.394 11.4619 144.003 11.5932 143.597 11.9266V16.0585H141.246V12.3185C141.246 11.6508 140.941 11.4619 140.49 11.4619C140.069 11.4619 139.546 11.6215 139.3 11.9124V16.0585H136.98V9.65899H139.229Z" fill="white"/>
<path d="M151.708 13.4897C151.897 14.1715 152.433 14.4341 153.347 14.4341C153.938 14.4385 154.524 14.3301 155.074 14.1149L155.44 15.6808C155.034 15.9707 154.077 16.203 153.079 16.203C150.409 16.203 149.379 14.5493 149.379 12.9098C149.379 11.1682 150.54 9.50977 152.818 9.50977C155.125 9.50977 156.14 11.222 156.14 12.8899C156.141 13.0891 156.126 13.288 156.097 13.4849L151.708 13.4897ZM151.664 12.3724H153.87C153.87 11.6329 153.478 11.239 152.81 11.239C152.201 11.2409 151.766 11.5894 151.663 12.3724H151.664Z" fill="white"/>
<path d="M73.9989 21.4554C73.9997 21.5233 73.9963 21.5912 73.9887 21.6586C73.9835 21.707 73.9691 21.7538 73.9463 21.7962C73.9302 21.8275 73.9071 21.8542 73.879 21.8741C73.8555 21.89 73.8281 21.8985 73.8001 21.8986H71.0094V24.6065H73.6408C73.6685 24.6057 73.6959 24.6131 73.7197 24.6279C73.7481 24.6447 73.7718 24.6689 73.7884 24.6982C73.8096 24.7396 73.8235 24.7846 73.8293 24.8311C73.8378 24.9016 73.8417 24.9726 73.841 25.0436C73.8414 25.1105 73.8375 25.1774 73.8293 25.2437C73.8232 25.2907 73.8094 25.3362 73.7884 25.3782C73.7714 25.4101 73.748 25.4378 73.7197 25.4592C73.6968 25.4769 73.6692 25.4865 73.6408 25.4867H71.0094V28.8029C71.0087 28.8325 71.0007 28.8615 70.9861 28.8869C70.9662 28.9171 70.9366 28.9388 70.9027 28.948C70.8549 28.964 70.8061 28.9762 70.7565 28.9847C70.5939 29.0051 70.4295 29.0051 70.2668 28.9847C70.2133 28.9771 70.1605 28.9648 70.1089 28.948C70.0751 28.9388 70.0455 28.9171 70.0256 28.8869C70.011 28.8615 70.0029 28.8325 70.0022 28.8029V21.4309C69.9958 21.3689 70.0034 21.3061 70.0245 21.2477C70.0455 21.1893 70.0795 21.1369 70.1236 21.0947C70.1965 21.0345 70.2864 21.0012 70.3794 21H73.8059C73.834 21.0001 73.8614 21.0086 73.8849 21.0245C73.9133 21.0446 73.9365 21.0719 73.9521 21.1039C73.9755 21.1515 73.9899 21.2034 73.9945 21.2567C73.9998 21.3228 74.0013 21.3891 73.9989 21.4554Z" fill="white"/>
<path d="M83.9992 24.9054C84.0063 25.4802 83.9309 26.053 83.7754 26.6067C83.6432 27.0772 83.4157 27.5159 83.107 27.896C82.8065 28.2534 82.4236 28.5334 81.9909 28.7124C81.4937 28.9127 80.9606 29.0102 80.4242 28.9989C79.9011 29.0112 79.3807 28.9219 78.892 28.7362C78.4791 28.5747 78.1132 28.3136 77.827 27.9766C77.5316 27.613 77.318 27.1906 77.2006 26.738C77.0586 26.1852 76.9914 25.6161 77.0009 25.0457C76.9945 24.4808 77.0699 23.9179 77.2247 23.3743C77.3574 22.907 77.586 22.472 77.8961 22.0968C78.2002 21.7435 78.5835 21.4659 79.0152 21.2865C80.0037 20.914 81.0936 20.9044 82.0885 21.2596C82.5006 21.4179 82.8673 21.6741 83.1566 22.0058C83.4554 22.3641 83.6722 22.7827 83.7919 23.2325C83.9384 23.778 84.0082 24.3409 83.9992 24.9054ZM82.8982 24.977C82.9012 24.5647 82.8614 24.1531 82.7795 23.7489C82.7128 23.3984 82.5797 23.0637 82.3875 22.7624C82.2044 22.4848 81.9511 22.2599 81.6529 22.1103C81.2984 21.944 80.9092 21.8637 80.5173 21.876C80.1234 21.8635 79.7328 21.9502 79.3817 22.1282C79.0809 22.2904 78.8234 22.5217 78.6307 22.8027C78.432 23.1009 78.2928 23.4343 78.2206 23.7847C78.1363 24.1725 78.0945 24.5683 78.0959 24.9651C78.0931 25.3887 78.1318 25.8115 78.2116 26.2276C78.276 26.5806 78.407 26.9183 78.5976 27.223C78.7777 27.4998 79.0293 27.7235 79.3262 27.8707C79.6837 28.0375 80.076 28.1173 80.4708 28.1035C80.8687 28.1164 81.2635 28.0291 81.6184 27.8498C81.9225 27.6888 82.1808 27.4542 82.3694 27.1678C82.5658 26.8646 82.7028 26.5275 82.7735 26.1739C82.8578 25.7805 82.9001 25.3793 82.8997 24.977H82.8982Z" fill="white"/>
<path d="M91.9999 28.8028C92.0007 28.8328 91.9948 28.8627 91.9827 28.8899C91.9646 28.9189 91.9377 28.9405 91.9065 28.951C91.8546 28.971 91.8005 28.9833 91.7455 28.9877C91.675 28.9877 91.583 28.9999 91.4665 28.9999C91.3844 29.0006 91.3023 28.9966 91.2207 28.9877C91.1678 28.9826 91.116 28.9692 91.0668 28.948C91.0313 28.9312 91.0006 28.9048 90.9777 28.8715C90.9544 28.833 90.936 28.7914 90.923 28.7478L90.2343 26.8666C90.1524 26.6527 90.069 26.4571 89.9813 26.2783C89.9005 26.1098 89.7962 25.9553 89.6722 25.8198C89.5521 25.6887 89.4083 25.5848 89.2495 25.5142C89.063 25.4374 88.8642 25.4005 88.6643 25.4057H87.9986V28.7967C87.9993 28.828 87.9902 28.8586 87.9727 28.8838C87.9518 28.9111 87.9238 28.9313 87.8922 28.9418C87.8429 28.9586 87.7924 28.9708 87.7412 28.9785C87.5817 28.9989 87.4205 28.9989 87.261 28.9785C87.2089 28.9708 87.1574 28.9585 87.1072 28.9418C87.0746 28.9325 87.0459 28.9121 87.0252 28.8838C87.0099 28.8577 87.0019 28.8274 87.0022 28.7967V21.4309C86.9958 21.3689 87.0033 21.3061 87.0241 21.2477C87.0448 21.1893 87.0782 21.1369 87.1215 21.0947C87.1933 21.0345 87.2817 21.0012 87.3731 21H88.9662C89.1546 21 89.3127 21 89.4378 21.0153C89.5629 21.0306 89.6765 21.0367 89.7757 21.0489C90.0415 21.0942 90.3 21.1791 90.5435 21.3011C90.7543 21.4077 90.9441 21.556 91.1028 21.7381C91.2528 21.9157 91.3677 22.1236 91.4406 22.3494C91.5182 22.5919 91.5566 22.8466 91.5542 23.1027C91.5575 23.346 91.523 23.5881 91.4521 23.8195C91.3902 24.0239 91.2926 24.2141 91.1646 24.3803C91.0336 24.5451 90.8793 24.6874 90.7074 24.8021C90.5195 24.9266 90.3194 25.0291 90.1107 25.1077C90.2315 25.1633 90.3443 25.2368 90.4457 25.3262C90.553 25.4192 90.6496 25.5253 90.7333 25.6425C90.8259 25.7768 90.9081 25.9189 90.9791 26.0674C91.0568 26.2202 91.133 26.4082 91.2106 26.6099L91.882 28.3627C91.9367 28.5155 91.9712 28.6148 91.987 28.6683C91.9959 28.7125 92.0002 28.7576 91.9999 28.8028ZM90.4989 23.2097C90.5071 22.9311 90.4387 22.656 90.3019 22.4181C90.142 22.1847 89.9073 22.0217 89.642 21.9597C89.5347 21.9288 89.4249 21.9084 89.3142 21.8986C89.1934 21.8863 89.0338 21.8802 88.8368 21.8802H87.9971V24.5637H88.9705C89.2009 24.5681 89.4305 24.5335 89.6506 24.4613C89.8264 24.4031 89.9889 24.3069 90.1279 24.1786C90.2532 24.0627 90.3495 23.9157 90.4083 23.7507C90.4706 23.5781 90.5013 23.3945 90.4989 23.2097Z" fill="white"/>
<path d="M103.999 28.5384C104 28.6074 103.996 28.6763 103.987 28.7447C103.98 28.7936 103.967 28.8414 103.949 28.8868C103.934 28.921 103.911 28.9506 103.882 28.9724C103.855 28.9913 103.823 29.0009 103.79 28.9999H100.383C100.289 28.9985 100.198 28.9652 100.124 28.9052C100.079 28.8629 100.045 28.8104 100.024 28.752C100.003 28.6936 99.9957 28.6309 100.002 28.569V21.1971C100.002 21.1663 100.01 21.1359 100.026 21.11C100.046 21.0813 100.076 21.0608 100.109 21.052C100.162 21.0352 100.216 21.0229 100.271 21.0153C100.434 20.9949 100.599 20.9949 100.762 21.0153C100.816 21.0232 100.869 21.0355 100.921 21.052C100.954 21.0608 100.983 21.0813 101.004 21.11C101.02 21.1359 101.028 21.1663 101.027 21.1971V28.083H103.796C103.829 28.082 103.861 28.0917 103.888 28.1105C103.916 28.1313 103.939 28.1592 103.955 28.1915C103.974 28.235 103.987 28.2814 103.993 28.3291C103.999 28.3987 104.001 28.4686 103.999 28.5384Z" fill="white"/>
<path d="M112.946 28.5895C112.975 28.659 112.992 28.7323 112.999 28.8069C113.002 28.83 112.999 28.8534 112.991 28.8753C112.983 28.8972 112.969 28.917 112.952 28.9331C112.903 28.9672 112.845 28.9863 112.785 28.9878C112.707 28.9878 112.604 29 112.473 29C112.342 29 112.241 29 112.161 28.9909C112.101 28.9876 112.042 28.9774 111.985 28.9605C111.951 28.9499 111.92 28.9299 111.897 28.9027C111.876 28.8738 111.858 28.8427 111.844 28.81L111.145 26.8776H107.764L107.098 28.7811C107.086 28.8153 107.07 28.8476 107.048 28.8769C107.024 28.9057 106.993 28.9286 106.958 28.9437C106.903 28.9656 106.846 28.9789 106.788 28.9833C106.693 28.9921 106.597 28.9962 106.502 28.9954C106.402 28.9969 106.302 28.9918 106.202 28.9802C106.146 28.9758 106.092 28.9557 106.046 28.9225C106.029 28.9062 106.017 28.8863 106.009 28.8645C106.001 28.8426 105.998 28.8193 106.001 28.7963C106.008 28.7216 106.027 28.6484 106.056 28.5789L108.782 21.2204C108.796 21.1794 108.819 21.1416 108.849 21.1095C108.882 21.0776 108.922 21.0546 108.967 21.0426C109.033 21.0239 109.1 21.0127 109.169 21.0091C109.251 21.0091 109.354 21 109.481 21C109.607 21 109.726 21 109.813 21.0091C109.885 21.0125 109.957 21.0237 110.027 21.0426C110.074 21.0546 110.117 21.0788 110.152 21.1125C110.183 21.1454 110.207 21.1842 110.222 21.2265L112.946 28.5895ZM109.446 22.0946L108.042 26.0475H110.871L109.446 22.0946Z" fill="white"/>
<path d="M121.999 24.8827C122.01 25.4978 121.923 26.1106 121.74 26.6966C121.586 27.1789 121.327 27.6188 120.982 27.9826C120.638 28.3311 120.221 28.5937 119.762 28.7499C119.203 28.9286 118.62 29.0126 118.035 28.9985H116.387C116.292 28.997 116.2 28.9636 116.125 28.9033C116.08 28.8609 116.046 28.8082 116.025 28.7495C116.003 28.6909 115.996 28.6279 116.002 28.5657V21.4345C115.996 21.3723 116.003 21.3093 116.025 21.2507C116.046 21.192 116.08 21.1393 116.125 21.0969C116.2 21.0366 116.292 21.0031 116.387 21.0017H118.155C118.737 20.9861 119.317 21.0771 119.868 21.2703C120.31 21.4327 120.711 21.6949 121.041 22.0376C121.365 22.3876 121.611 22.8068 121.759 23.2652C121.927 23.7869 122.008 24.3336 121.999 24.8827ZM120.907 24.9257C120.913 24.5179 120.862 24.1113 120.758 23.7179C120.662 23.3633 120.495 23.0333 120.266 22.7496C120.036 22.4729 119.746 22.2553 119.419 22.1143C118.998 21.9468 118.549 21.869 118.098 21.8856H117.049V28.1084H118.117C118.545 28.1202 118.972 28.0553 119.378 27.9166C119.707 27.7981 120.002 27.5965 120.235 27.3304C120.476 27.0426 120.652 26.7035 120.75 26.3375C120.868 25.877 120.921 25.4016 120.907 24.9257Z" fill="white"/>
<path d="M126 28.8037C126 28.8344 125.992 28.8644 125.977 28.8905C125.956 28.9186 125.927 28.9389 125.895 28.9483C125.845 28.9647 125.794 28.9769 125.742 28.9848C125.582 29.0051 125.421 29.0051 125.261 28.9848C125.208 28.9772 125.156 28.965 125.105 28.9483C125.073 28.9389 125.044 28.9186 125.023 28.8905C125.007 28.8647 124.999 28.8344 125 28.8037V21.1965C124.999 21.1653 125.008 21.1348 125.026 21.1098C125.049 21.0815 125.08 21.0614 125.114 21.0519C125.165 21.0357 125.217 21.0235 125.27 21.0154C125.346 21.0043 125.423 20.9992 125.499 21.0002C125.58 20.9989 125.661 21.0039 125.742 21.0154C125.794 21.0233 125.845 21.0355 125.895 21.0519C125.927 21.0613 125.956 21.0816 125.977 21.1098C125.992 21.1358 126 21.1658 126 21.1965V28.8037Z" fill="white"/>
<path d="M133.999 28.5609C133.999 28.6261 133.995 28.6913 133.988 28.7559C133.982 28.8044 133.969 28.8516 133.949 28.8956C133.934 28.9278 133.912 28.9553 133.884 28.9754C133.86 28.992 133.833 29.0006 133.804 29H130.358C130.27 28.9988 130.185 28.9653 130.117 28.9048C130.075 28.8625 130.043 28.8098 130.023 28.7512C130.003 28.6925 129.996 28.6294 130.002 28.5671V21.4331C129.996 21.3708 130.003 21.3077 130.023 21.249C130.043 21.1904 130.075 21.1377 130.117 21.0954C130.185 21.0349 130.27 21.0014 130.358 21.0002H133.767C133.797 20.9985 133.827 21.0077 133.852 21.0266C133.877 21.0454 133.895 21.0728 133.905 21.1046C133.922 21.1494 133.935 21.1963 133.942 21.2443C133.952 21.3129 133.956 21.3822 133.956 21.4515C133.956 21.5168 133.952 21.582 133.942 21.6465C133.935 21.6931 133.922 21.7385 133.905 21.7816C133.894 21.8138 133.873 21.8412 133.847 21.8599C133.823 21.8759 133.795 21.8843 133.767 21.8845H130.956V24.3945H133.366C133.395 24.3942 133.422 24.4039 133.446 24.4221C133.471 24.442 133.492 24.4683 133.507 24.4989C133.526 24.5417 133.538 24.5879 133.544 24.6355C133.551 24.7032 133.555 24.7714 133.555 24.8397C133.555 24.9038 133.551 24.968 133.544 25.0316C133.538 25.0766 133.526 25.1202 133.507 25.1605C133.493 25.1907 133.472 25.2157 133.446 25.2327C133.421 25.247 133.394 25.2544 133.366 25.2542H130.956V28.1219H133.811C133.839 28.122 133.867 28.1305 133.891 28.1464C133.918 28.1663 133.94 28.1932 133.956 28.2247C133.976 28.2669 133.989 28.3126 133.995 28.3598C134 28.4267 134.001 28.4939 133.999 28.5609Z" fill="white"/>
<path d="M141 26.7087C141.005 27.0439 140.947 27.3762 140.831 27.6815C140.721 27.9601 140.562 28.2067 140.364 28.404C140.157 28.6071 139.917 28.759 139.66 28.8509C139.377 28.9528 139.082 29.003 138.786 28.9999C138.585 28.9996 138.384 28.9756 138.186 28.9284C138.016 28.8907 137.849 28.8369 137.687 28.7675C137.56 28.7135 137.437 28.6472 137.32 28.5693C137.245 28.5217 137.176 28.4632 137.114 28.395C137.073 28.3434 137.044 28.2804 137.029 28.2118C137.008 28.1146 136.998 28.0143 137 27.9139C137 27.8407 137.003 27.7675 137.01 27.6949C137.015 27.6462 137.026 27.5987 137.042 27.5533C137.051 27.5227 137.068 27.4965 137.091 27.4789C137.113 27.4639 137.137 27.4566 137.161 27.458C137.234 27.4694 137.303 27.5044 137.36 27.5593C137.466 27.6409 137.576 27.715 137.689 27.7813C137.846 27.872 138.008 27.9473 138.175 28.0062C138.388 28.08 138.609 28.1151 138.83 28.1105C139.005 28.1129 139.179 28.0827 139.346 28.0211C139.492 27.9676 139.628 27.8811 139.748 27.7664C139.859 27.6569 139.948 27.5182 140.007 27.3612C140.069 27.1891 140.1 27.0032 140.097 26.8159C140.102 26.6173 140.059 26.4211 139.972 26.2513C139.885 26.0902 139.773 25.9505 139.641 25.8402C139.493 25.7154 139.336 25.6072 139.171 25.5169L138.63 25.219C138.446 25.1175 138.267 25.0046 138.093 24.8808C137.922 24.7597 137.765 24.6125 137.626 24.4428C137.485 24.2699 137.372 24.068 137.291 23.8469C137.202 23.5899 137.159 23.3131 137.166 23.035C137.162 22.7365 137.213 22.4405 137.315 22.168C137.409 21.92 137.55 21.7013 137.727 21.5289C137.911 21.3505 138.123 21.2169 138.351 21.1356C138.606 21.0435 138.871 20.9978 139.137 21.0001C139.283 21.0008 139.428 21.0162 139.572 21.0463C139.711 21.0746 139.849 21.1144 139.985 21.1654C140.103 21.2103 140.218 21.2666 140.328 21.3338C140.4 21.3723 140.466 21.4224 140.526 21.4827C140.573 21.5255 140.604 21.587 140.615 21.6556C140.622 21.6964 140.627 21.7377 140.63 21.7792C140.63 21.8269 140.63 21.8894 140.63 21.9654C140.63 22.0296 140.628 22.0937 140.623 22.1576C140.619 22.205 140.611 22.2519 140.6 22.2976C140.593 22.3301 140.578 22.3596 140.558 22.3825C140.54 22.4001 140.517 22.4096 140.494 22.4093C140.431 22.3976 140.372 22.3685 140.321 22.3244C140.242 22.2693 140.146 22.2068 140.032 22.1352C139.902 22.0591 139.767 21.9953 139.628 21.9446C139.457 21.8838 139.28 21.8542 139.102 21.8567C138.942 21.853 138.781 21.8827 138.629 21.9446C138.507 21.9943 138.394 22.0728 138.297 22.1755C138.211 22.2698 138.144 22.3865 138.101 22.5166C138.058 22.6505 138.036 22.793 138.036 22.9367C138.031 23.1335 138.075 23.3278 138.161 23.4954C138.25 23.6568 138.363 23.7973 138.494 23.9095C138.644 24.036 138.804 24.1462 138.97 24.2387L139.513 24.5367C139.698 24.636 139.879 24.7477 140.056 24.8719C140.229 24.9908 140.389 25.136 140.531 25.3039C140.673 25.476 140.787 25.678 140.867 25.8998C140.96 26.1547 141.005 26.4308 141 26.7087Z" fill="white"/>
</svg>
