<svg width="51" height="33" viewBox="0 0 51 33" fill="none" xmlns="http://www.w3.org/2000/svg">
<path d="M24.8436 8.87119H23.3184V10.3974H24.8436V8.87119Z" fill="black"/>
<path d="M27.2815 8.87119H25.7534V10.3974H27.2815V8.87119Z" fill="black"/>
<path d="M24.8436 11.306H23.3184V12.8322H24.8436V11.306Z" fill="black"/>
<path d="M27.2815 11.306H25.7534V12.8322H27.2815V11.306Z" fill="black"/>
<path d="M10.9094 17.6743H9.20654V19.3791H10.9094V17.6743Z" fill="black"/>
<path d="M13.6295 17.6743H11.9238V19.3791H13.6295V17.6743Z" fill="black"/>
<path d="M10.9094 20.3925H9.20654V22.0972H10.9094V20.3925Z" fill="black"/>
<path d="M13.6295 20.3925H11.9238V22.0972H13.6295V20.3925Z" fill="black"/>
<path d="M38.9735 15.7071H37.7627V16.9178H38.9735V15.7071Z" fill="black"/>
<path d="M40.9051 15.7071H39.6924V16.9178H40.9051V15.7071Z" fill="black"/>
<path d="M38.9735 17.6375H37.7627V18.8483H38.9735V17.6375Z" fill="black"/>
<path d="M40.9051 17.6375H39.6924V18.8483H40.9051V17.6375Z" fill="black"/>
<path d="M5.54395 17.901L11.4326 12.0105L23.1257 23.7037L20.3642 26.4652L27.6099 23.5932L39.1917 12.0105L44.1972 17.0161L47.3309 15.7741L39.1917 7.63678L35.9362 10.8904L25.0448 0L14.4198 10.6241L11.4326 7.63867L3.41895 15.6513L5.54395 17.901ZM25.0448 4.37278L33.7507 13.0796L25.3121 21.5173L16.6091 12.8114L25.0448 4.37278Z" fill="#890620"/>
<path d="M15.1206 29.9993L2.38944 16.5325L0 18.9465L14.6464 32.4917L50.4069 16.0121L15.1206 29.9993Z" fill="black"/>
</svg>
